solid OpenSCAD_Model
  facet normal 1 -0 0
    outer loop
      vertex 20 0 10
      vertex 20 13.1 0
      vertex 20 13.1 10
    endloop
  endfacet
  facet normal 1 0 0
    outer loop
      vertex 20 13.1 0
      vertex 20 0 10
      vertex 20 0 0
    endloop
  endfacet
  facet normal 1 -0 0
    outer loop
      vertex 20 15.6 10
      vertex 20 17.5 0
      vertex 20 17.5 10
    endloop
  endfacet
  facet normal 1 0 0
    outer loop
      vertex 20 17.5 0
      vertex 20 15.6 10
      vertex 20 15.6 0
    endloop
  endfacet
  facet normal 0 0 1
    outer loop
      vertex 2.5 20 10
      vertex 0 20 10
      vertex 2.5 2.5 10
    endloop
  endfacet
  facet normal 0 0 1
    outer loop
      vertex 26.2 20 10
      vertex 25.425 17.5 10
      vertex 26.2 17.12 10
    endloop
  endfacet
  facet normal 0 0 1
    outer loop
      vertex 26.2 20 10
      vertex 20 17.5 10
      vertex 25.425 17.5 10
    endloop
  endfacet
  facet normal 0 0 1
    outer loop
      vertex 17.5 20 10
      vertex 20 15.6 10
      vertex 20 17.5 10
    endloop
  endfacet
  facet normal 0 0 1
    outer loop
      vertex 20 15.6 10
      vertex 17.5 20 10
      vertex 20 13.1 10
    endloop
  endfacet
  facet normal -0 0 1
    outer loop
      vertex 17.5 20 10
      vertex 20 17.5 10
      vertex 26.2 20 10
    endloop
  endfacet
  facet normal 0 0 1
    outer loop
      vertex 20 13.1 10
      vertex 17.5 20 10
      vertex 17.5 2.5 10
    endloop
  endfacet
  facet normal 0 0 1
    outer loop
      vertex 20 13.1 10
      vertex 17.5 2.5 10
      vertex 20 0 10
    endloop
  endfacet
  facet normal -0 0 1
    outer loop
      vertex 2.5 2.5 10
      vertex 20 0 10
      vertex 17.5 2.5 10
    endloop
  endfacet
  facet normal 0 0 1
    outer loop
      vertex 2.5 2.5 10
      vertex 0 0 10
      vertex 20 0 10
    endloop
  endfacet
  facet normal 0 0 1
    outer loop
      vertex 0 0 10
      vertex 2.5 2.5 10
      vertex 0 20 10
    endloop
  endfacet
  facet normal 0 0 1
    outer loop
      vertex 26.2 17.12 10
      vertex 25.425 17.5 10
      vertex 25.425 17.12 10
    endloop
  endfacet
  facet normal 0 0 1
    outer loop
      vertex 25.425 15.6 10
      vertex 26.2 15.98 10
      vertex 25.425 15.98 10
    endloop
  endfacet
  facet normal 0 0 1
    outer loop
      vertex 26.2 15.98 10
      vertex 25.425 15.6 10
      vertex 26.2 13.1 10
    endloop
  endfacet
  facet normal 0 0 1
    outer loop
      vertex 20 13.1 10
      vertex 25.425 15.6 10
      vertex 20 15.6 10
    endloop
  endfacet
  facet normal 0 0 1
    outer loop
      vertex 25.425 15.6 10
      vertex 20 13.1 10
      vertex 26.2 13.1 10
    endloop
  endfacet
  facet normal 1 -0 0
    outer loop
      vertex 26.2 17.12 10
      vertex 26.2 20 0
      vertex 26.2 20 10
    endloop
  endfacet
  facet normal 1 0 0
    outer loop
      vertex 26.2 20 0
      vertex 26.2 17.12 10
      vertex 26.2 17.12 0
    endloop
  endfacet
  facet normal 0 1 -0
    outer loop
      vertex 26.2 20 0
      vertex 17.5 20 10
      vertex 26.2 20 10
    endloop
  endfacet
  facet normal 0 1 0
    outer loop
      vertex 17.5 20 10
      vertex 26.2 20 0
      vertex 17.5 20 0
    endloop
  endfacet
  facet normal 0 1 -0
    outer loop
      vertex 2.5 20 0
      vertex 0 20 10
      vertex 2.5 20 10
    endloop
  endfacet
  facet normal 0 1 0
    outer loop
      vertex 0 20 10
      vertex 2.5 20 0
      vertex 0 20 0
    endloop
  endfacet
  facet normal 0 0 -1
    outer loop
      vertex 17.5 2.5 0
      vertex 20 13.1 0
      vertex 20 0 0
    endloop
  endfacet
  facet normal 0 0 -1
    outer loop
      vertex 17.5 20 0
      vertex 20 13.1 0
      vertex 17.5 2.5 0
    endloop
  endfacet
  facet normal 0 0 -1
    outer loop
      vertex 20 13.1 0
      vertex 17.5 20 0
      vertex 20 15.6 0
    endloop
  endfacet
  facet normal 0 0 -1
    outer loop
      vertex 20 0 0
      vertex 2.5 2.5 0
      vertex 17.5 2.5 0
    endloop
  endfacet
  facet normal 0 0 -1
    outer loop
      vertex 0 0 0
      vertex 2.5 2.5 0
      vertex 20 0 0
    endloop
  endfacet
  facet normal 0 0 -1
    outer loop
      vertex 0 20 0
      vertex 2.5 2.5 0
      vertex 0 0 0
    endloop
  endfacet
  facet normal 0 0 -1
    outer loop
      vertex 2.5 2.5 0
      vertex 0 20 0
      vertex 2.5 20 0
    endloop
  endfacet
  facet normal 0 0 -1
    outer loop
      vertex 26.2 13.1 0
      vertex 25.425 15.6 0
      vertex 26.2 15.98 0
    endloop
  endfacet
  facet normal 0 0 -1
    outer loop
      vertex 20 13.1 0
      vertex 25.425 15.6 0
      vertex 26.2 13.1 0
    endloop
  endfacet
  facet normal -0 0 -1
    outer loop
      vertex 25.425 15.6 0
      vertex 20 13.1 0
      vertex 20 15.6 0
    endloop
  endfacet
  facet normal -0 0 -1
    outer loop
      vertex 26.2 15.98 0
      vertex 25.425 15.6 0
      vertex 25.425 15.98 0
    endloop
  endfacet
  facet normal 0 0 -1
    outer loop
      vertex 25.425 17.5 0
      vertex 26.2 17.12 0
      vertex 25.425 17.12 0
    endloop
  endfacet
  facet normal 0 0 -1
    outer loop
      vertex 26.2 17.12 0
      vertex 25.425 17.5 0
      vertex 26.2 20 0
    endloop
  endfacet
  facet normal 0 0 -1
    outer loop
      vertex 20 17.5 0
      vertex 26.2 20 0
      vertex 25.425 17.5 0
    endloop
  endfacet
  facet normal 0 0 -1
    outer loop
      vertex 20 17.5 0
      vertex 17.5 20 0
      vertex 26.2 20 0
    endloop
  endfacet
  facet normal 0 0 -1
    outer loop
      vertex 20 15.6 0
      vertex 17.5 20 0
      vertex 20 17.5 0
    endloop
  endfacet
  facet normal 0 -1 0
    outer loop
      vertex 20 17.5 0
      vertex 25.425 17.5 10
      vertex 20 17.5 10
    endloop
  endfacet
  facet normal 0 -1 -0
    outer loop
      vertex 25.425 17.5 10
      vertex 20 17.5 0
      vertex 25.425 17.5 0
    endloop
  endfacet
  facet normal -1 0 0
    outer loop
      vertex 25.425 17.12 0
      vertex 25.425 17.5 10
      vertex 25.425 17.5 0
    endloop
  endfacet
  facet normal -1 -0 0
    outer loop
      vertex 25.425 17.5 10
      vertex 25.425 17.12 0
      vertex 25.425 17.12 10
    endloop
  endfacet
  facet normal 0 -1 0
    outer loop
      vertex 25.425 17.12 0
      vertex 26.2 17.12 10
      vertex 25.425 17.12 10
    endloop
  endfacet
  facet normal 0 -1 -0
    outer loop
      vertex 26.2 17.12 10
      vertex 25.425 17.12 0
      vertex 26.2 17.12 0
    endloop
  endfacet
  facet normal 1 -0 0
    outer loop
      vertex 26.2 13.1 10
      vertex 26.2 15.98 0
      vertex 26.2 15.98 10
    endloop
  endfacet
  facet normal 1 0 0
    outer loop
      vertex 26.2 15.98 0
      vertex 26.2 13.1 10
      vertex 26.2 13.1 0
    endloop
  endfacet
  facet normal 0 -1 0
    outer loop
      vertex 20 13.1 0
      vertex 26.2 13.1 10
      vertex 20 13.1 10
    endloop
  endfacet
  facet normal 0 -1 -0
    outer loop
      vertex 26.2 13.1 10
      vertex 20 13.1 0
      vertex 26.2 13.1 0
    endloop
  endfacet
  facet normal 0 1 -0
    outer loop
      vertex 25.425 15.6 0
      vertex 20 15.6 10
      vertex 25.425 15.6 10
    endloop
  endfacet
  facet normal 0 1 0
    outer loop
      vertex 20 15.6 10
      vertex 25.425 15.6 0
      vertex 20 15.6 0
    endloop
  endfacet
  facet normal -1 0 0
    outer loop
      vertex 25.425 15.6 0
      vertex 25.425 15.98 10
      vertex 25.425 15.98 0
    endloop
  endfacet
  facet normal -1 -0 0
    outer loop
      vertex 25.425 15.98 10
      vertex 25.425 15.6 0
      vertex 25.425 15.6 10
    endloop
  endfacet
  facet normal 0 1 -0
    outer loop
      vertex 26.2 15.98 0
      vertex 25.425 15.98 10
      vertex 26.2 15.98 10
    endloop
  endfacet
  facet normal 0 1 0
    outer loop
      vertex 25.425 15.98 10
      vertex 26.2 15.98 0
      vertex 25.425 15.98 0
    endloop
  endfacet
  facet normal -1 0 0
    outer loop
      vertex 0 0 0
      vertex 0 20 10
      vertex 0 20 0
    endloop
  endfacet
  facet normal -1 -0 0
    outer loop
      vertex 0 20 10
      vertex 0 0 0
      vertex 0 0 10
    endloop
  endfacet
  facet normal 0 -1 0
    outer loop
      vertex 0 0 0
      vertex 20 0 10
      vertex 0 0 10
    endloop
  endfacet
  facet normal 0 -1 -0
    outer loop
      vertex 20 0 10
      vertex 0 0 0
      vertex 20 0 0
    endloop
  endfacet
  facet normal 1 -0 0
    outer loop
      vertex 2.5 2.5 10
      vertex 2.5 20 0
      vertex 2.5 20 10
    endloop
  endfacet
  facet normal 1 0 0
    outer loop
      vertex 2.5 20 0
      vertex 2.5 2.5 10
      vertex 2.5 2.5 0
    endloop
  endfacet
  facet normal -1 0 0
    outer loop
      vertex 17.5 2.5 0
      vertex 17.5 20 10
      vertex 17.5 20 0
    endloop
  endfacet
  facet normal -1 -0 0
    outer loop
      vertex 17.5 20 10
      vertex 17.5 2.5 0
      vertex 17.5 2.5 10
    endloop
  endfacet
  facet normal 0 1 -0
    outer loop
      vertex 17.5 2.5 0
      vertex 2.5 2.5 10
      vertex 17.5 2.5 10
    endloop
  endfacet
  facet normal 0 1 0
    outer loop
      vertex 2.5 2.5 10
      vertex 17.5 2.5 0
      vertex 2.5 2.5 0
    endloop
  endfacet
endsolid OpenSCAD_Model
